<svg version="1.2" xmlns="http://www.w3.org/2000/svg" viewBox="0 0 1024 1024" width="1024" height="1024"><style>.a{fill:#109886}.b{fill:#f47a5a}.c{fill:#2d5ea6}</style><path fill-rule="evenodd" class="a" d="m456.1 249.1c-11.7-49.9-19.8-121.6 4.9-169.1 11.3-21.5 27.1-33.4 49.8-41 6.3-0.9 12.4-1.3 18.8-0.8 59.3 4.2 108.6 64 144.9 105.4 17.5-15 36-29 56.1-40.3 30.3-17 67.5-29.9 102.2-19.5 22.2 6.7 39.4 22.2 49.4 43 23.5 48.4 5.6 108.7-11.1 156.2 38.1 14.8 78.1 30.7 106.7 60.9 19.6 20.7 31.6 47.2 30.3 76.1-1.2 26-13.4 48.7-32.4 66.2-61.7 57.1-161.5 49.2-239 46.1-5.1-0.6-12.6-2.2-17.6-0.5-18.6 6.5-41 30.9-57.4 43q-12.9 9.7-26.7 17.9-13.9 8.2-28.6 14.9c-30.5 13.7-65.5 21.9-97.8 8.8-20.1-8.2-34.9-23.5-43-43.7-25.2-63.3 7.9-141.9 31.9-200.6-13.4-25.3-22.1-52.5-31-79.6-35.5 10.5-56.7 28.9-88.8 42.9-5.7 2.6-14.4 6.4-20.6 3.6-6.4-2.9-9.8-8.4-11.8-14.9-2.2-7.1-0.8-14.1 2.9-20.4 17.6-30.6 76.2-46.5 107.9-54.6zm64.1-163.3c-18.4 14.2-25.4 30.7-28.3 53.6-4.3 33.4 1.4 67.4 6.9 100.3 19.8-2.7 82-2.4 94.9-14.3 14-16.7 28.5-33.6 45.1-47.9-26.1-31.6-64.6-87.1-108.9-91.7-3.3-0.3-6.5-0.1-9.7 0zm280.9 39.5c-38.1 11.9-69.7 32.5-101 57 15.4 21.9 29.9 44.4 42.4 68.1 7.7 1.6 15.3 3.4 23.1 4.6 21.2 4.7 42.5 9.1 63.5 14.8 10.2-35.1 28.5-87.7 10.7-122.4-5.5-10.8-14.9-17.3-26.4-20.7-4.1-1.2-8-1.3-12.3-1.4zm-137 88.5c-6.6 7.1-13.4 14.1-19.3 21.9 6 0.6 12.9 2 19 2 5.9 0.8 10 2.6 15.3-0.5-0.9-8.2-9.2-17.3-15-23.4zm-53.9 63.7c-23.8 30.7-45.9 64.5-61.1 100.4 39.4 62.6 81.8 82.4 151.3 100.3 23.3-22.3 42.4-49.2 60.8-75.4-13-37.4-26-75.9-47.2-109.6-34.7-6.9-68.9-10.4-103.8-15.7zm-91.5 4.8l-5 2.2c-2 6.7 1.4 21.2 5.2 27.1 2.2 3.4 3.9 4.9 7.4 6.9 3-2.3 4.4-4 6.3-7.3l18.1-30.3c-10.6 0.4-21.3 0.6-32 1.4zm251 20c4.2 10.7 12.3 38.2 21.9 43.6 0.6 0.3 1.2 0.5 1.9 0.7 3.5-2.5 4.8-4.8 6.8-8.6l11.9-23q-21.2-6.6-42.5-12.7zm84.9 24.9c-13.2 29.1-29.4 56.2-43.7 84.7 6.1 25.2 9.1 50.8 13 76.4 28.3-4 57-7.3 84.4-15.3 19.4-8 44.9-19.3 53.5-39.9 4.4-10.7 3-22.3-1.5-32.8-17.7-41.1-68.8-55.5-105.7-73.1zm-330.9 99.2c-11.8 36.5-32.9 93.4-14.5 130.3 4.5 9.2 11.4 15.6 21.3 18.5 26.7 7.7 59.2-10.7 81.9-23.5 15.8-9.9 32-19.6 47.1-30.6-57.8-21.5-96.1-47.1-135.8-94.7zm213.5 287.6c-7.2 1.3-15.1 1.5-21.6-2.2-4.9-2.7-8.8-7.6-10.1-13-5.6-23.8 38.3-52 50-70.8 10.2-16.4 15.9-35.3 26.4-51.7 10.4-0.5 21.8-1.6 29.6 6.7 4.8 5.1 5.6 12.5 4.8 19.2-4.5 35.8-51 90.6-79.1 111.8z"/><path fill-rule="evenodd" class="b" d="m245.2 169.5c-22.7 0.1-51.6-31.3-67.5-46.2-12.4-11.6-44.2-36.7-42.8-55 0.7-9 8-14.1 14.4-19.3 17.8-0.2 31.7 12.9 44.4 24 15.3 13.3 66.1 57.4 65.2 75.1-0.5 10-7 14.9-13.7 21.4zm-85.6 160.6c-27.4-0.8-104.2-20.9-124.6-39.2-5-4.5-9.1-10.3-8.5-17.5 0.7-8.5 6.5-14.2 12.2-19.9 36.6 4.8 85.1 13.7 116.9 33.3 7.2 4.4 15.6 11.5 16.4 20.5 0.9 9.7-6.4 16.3-12.4 22.8zm-101.3 212.6c-5.9 1.2-12.9 1.6-18.8 0.4-7.9-1.5-18.6-8.3-22-15.7-2.3-5.1-1.6-6.7 0-11.7 22.1-23.6 80.1-22.7 110.3-25.4 11.6-1.4 19.8-2.4 30.1 4.2 6.1 3.9 8.9 7.8 10.4 15-0.8 5.3-2 8.6-5.5 12.6-19 21.2-77.8 18.6-104.5 20.6zm58.7 229.4c-5 1.1-14.5 0-18.7-3.3-4.5-3.5-5.7-11-5.2-16.2 3.3-33.8 77.1-84.2 104.4-103.3 6.3 1.2 14.6 2.9 19.5 7.3 4.1 3.6 6.5 7.2 6.6 12.8 0.5 24.9-84.9 86.2-106.6 102.7z"/><path fill-rule="evenodd" class="c" d="m628 759.5c-42.5 4-87.5-0.1-130.3-0.2-32.7-0.1-67.7 4.4-100.1 0-19.1-2.7-25.7-16.6-32.6-32.9-7.4-17.7-13.6-37.5-23.8-53.8-20.3-32.5-54.9-57.3-77.9-88.8-41.5-56.8-57.9-131-46.6-200.1 15.4-93.4 73.2-153.5 147.3-206.6 3.2 0.1 6.4 0.2 9.6 0.4 7.8 0.7 12.4 2.7 17.4 9 7.5 27.2-67.8 79.2-86.1 100.9-13.5 15.9-24.1 38.4-31.3 57.8q-1.3 3.5-2.5 7.1-1.3 3.5-2.4 7.1-1.1 3.6-2 7.2-1 3.6-1.9 7.3-0.9 3.6-1.6 7.3-0.8 3.7-1.4 7.4-0.6 3.7-1.1 7.4-0.5 3.7-0.9 7.4-0.4 3.8-0.7 7.5-0.2 3.8-0.4 7.5-0.1 3.8-0.1 7.5 0 3.8 0.1 7.5 0.1 3.8 0.3 7.5 0.2 3.8 0.6 7.5 0.3 3.7 0.8 7.5 0.5 3.7 1.1 7.4 0.6 3.7 1.3 7.4 0.7 3.7 1.5 7.3 0.8 3.7 1.8 7.3 0.9 3.6 2 7.2 1.1 3.6 2.3 7.2 1.1 3.5 2.4 7.1 1.3 3.5 2.8 7 1.4 3.4 2.9 6.9 1.5 3.4 3.2 6.8 1.6 3.3 3.4 6.7 1.7 3.3 3.5 6.5 1.9 3.3 3.9 6.5 1.9 3.2 4 6.3 2.1 3.2 4.2 6.2 2.2 3.1 4.4 6.1 2.3 3 4.7 5.9c19.7 24.1 44.3 43.7 62.7 69.1 16.3 22.4 27 48 38.4 73.1q58.1 1.4 116.3 0.4c26.2-0.5 53.7-2.6 79.8-0.3 9.2 0.8 18.8 2.5 27.1 6.6 6.8 3.3 8.9 6.8 11.4 13.7-1.9 11.6-8.5 18.1-17.5 25.2zm35.6-335.5c-8.6 0.9-18.2 1.4-26.6-1-12.1-3.4-23.1-12.1-29.2-23.2q-1.2-2.3-2.2-4.8-1-2.5-1.8-5-0.7-2.6-1.2-5.2-0.5-2.6-0.7-5.2-0.2-2.7-0.1-5.3 0.1-2.7 0.4-5.3 0.4-2.7 1-5.2 0.6-2.6 1.5-5.1c6.1-17.3 17.7-26.2 33.7-33.9 7.7 0 15.4-0.1 22.9 1.9 14.3 3.8 27.5 12.9 34.6 26q1.1 2.1 2.1 4.3 0.9 2.3 1.6 4.6 0.7 2.3 1.1 4.6 0.5 2.4 0.6 4.8 0.2 2.3 0.2 4.7-0.1 2.4-0.4 4.8-0.3 2.4-0.9 4.7-0.5 2.4-1.4 4.6c-6.3 17.5-19.2 26.3-35.2 34.2zm-106.1 427.4c-30.1 0-150.8 5.3-172.6-6-5.1-2.6-8.9-6.3-10-12.1-1.2-6.2 3.2-16.4 7.3-21.1 11.2-12.7 66.3-7.4 83-7.3 31.5-0.3 158.7-8.7 177.3 10.5 4.1 4.2 6.2 8.6 5.7 14.5-0.4 5.8-3 10.2-7.2 14.1-14.9 13.9-63.1 7.6-83.5 7.4zm-3.5 125.2c-9.7 4.8-19.7 8.2-30.6 9.3q-2.6 0.3-5.2 0.4-2.6 0.2-5.2 0.2-2.6 0-5.2-0.1-2.6-0.2-5.2-0.4-2.5-0.3-5.1-0.6-2.6-0.4-5.2-0.9-2.5-0.5-5-1.2-2.6-0.6-5.1-1.3-2.4-0.8-4.9-1.7-2.4-0.9-4.8-1.9-2.5-1-4.8-2.1-2.4-1.1-4.6-2.3-2.3-1.3-4.6-2.6-2.2-1.3-4.4-2.8-2.1-1.5-4.2-3-2.1-1.6-4.1-3.2c-11.8-9.6-32.9-32.4-33.3-48.9-0.1-6.1 1.3-10.4 5.7-14.7 7.3-7 30-4.9 39.8-5.1 27.7-0.6 125.3-8.1 144.4 7.7 3.6 6.8 2.8 11.7 1.2 18.7-5.8 24.5-29 43.9-49.6 56.5z"/></svg>